<svg xmlns="http://www.w3.org/2000/svg" xml:space="preserve" viewBox="0 0 512 512"><path d="M256 460.8c113.13 0 204.8-91.7 204.8-204.8S369.13 51.2 256 51.2C142.9 51.2 51.2 142.9 51.2 256S142.9 460.8 256 460.8m0 51.2C114.63 512 0 397.38 0 256 0 114.6 114.63 0 256 0c141.4 0 256 114.6 256 256 0 141.38-114.6 256-256 256"/><path d="M343.75 336.58v-128h-128v-7.97c0-13.23 10.75-24.03 24-24.03h24v-48h-24c-39.75.05-71.98 32.28-72 72.03v7.97h-32v48h32v80h-32v48h112v-48h-32v-80h80.45v80h-32.45v48h112v-48z"/><circle cx="317.5" cy="152.85" r="25.63"/></svg>